<svg width="280" height="280" viewBox="0 0 280 280" fill="none" xmlns="http://www.w3.org/2000/svg">
<path d="M268.7 170.3C261.3 165.9 251.8 168.4 247.5 175.8L234.6 197.8L136 38.1C133.2 33.6 128.2 30.8 122.8 30.8C122.8 30.8 122.767 30.8 122.7 30.8C117.3 30.8 112.3 33.7001 109.5 38.4001L28.1 175.2C25.3 180 25.2 185.9 28 190.8C30.7 195.6 35.9 198.6 41.5 198.6H122.8C131.4 198.6 138.3 191.7 138.3 183.1C138.3 174.5 131.4 167.6 122.8 167.6H68.8L123.1 76.2L221.7 236C224.6 240.6 229.6 243.4 234.9 243.4C234.967 243.4 235.033 243.4 235.1 243.4C240.6 243.3 245.6 240.4 248.3 235.7L274.2 191.5C278.6 184.1 276.1 174.6 268.7 170.3Z" fill="#2B00A9"/>
<path d="M121.2 217.8H19.2C10.7 217.8 3.70001 224.7 3.70001 233.3C3.70001 241.9 10.7 248.8 19.2 248.8H121.2C129.8 248.8 136.7 241.9 136.7 233.3C136.7 224.7 129.8 217.8 121.2 217.8Z" fill="#2B00A9"/>
</svg>
